<?xml version="1.0" encoding="UTF-8"?><svg id="Layer_1" xmlns="http://www.w3.org/2000/svg" width="16mm" height="16mm" viewBox="0 0 45.3543 45.3543"><path d="m33.9171,21.2548c-5.4001-.0532-9.7643-4.4174-9.8176-9.8176-.4669-.0586-.9395-.0987-1.4224-.0987-6.2621,0-11.3386,5.0765-11.3386,11.3386s5.0765,11.3386,11.3386,11.3386,11.3386-5.0765,11.3386-11.3386c0-.4828-.0401-.9554-.0987-1.4223Zm-11.2399,9.9263c-4.6895,0-8.5039-3.8145-8.5039-8.5039,0-4.3252,3.2451-7.9062,7.4297-8.4365,1.1074,4.6816,4.8291,8.4033,9.5107,9.5107-.5303,4.1846-4.1113,7.4297-8.4365,7.4297Z"/></svg>