<?xml version="1.0" encoding="UTF-8"?><svg id="Layer_1" xmlns="http://www.w3.org/2000/svg" width="16mm" height="16mm" viewBox="0 0 45.3543 45.3543"><path d="m26.9291,19.8425c-.1387,0-.2739.0142-.411.0208-1.2137-4.1076-5.0092-7.1074-9.5102-7.1074-4.6301,0-8.5081,3.1763-9.6024,7.4656-3.4683,1.0727-5.9882,4.3043-5.9882,8.125,0,4.6966,3.8073,8.5039,8.5039,8.5039h17.0079c4.6967,0,8.504-3.8073,8.504-8.5039s-3.8073-8.504-8.504-8.504Zm0,14.173H9.9214c-3.126,0-5.6689-2.543-5.6689-5.6689,0-2.502,1.6035-4.6787,3.9902-5.417l1.5176-.4688.3926-1.5391c.7998-3.1387,3.6191-5.3311,6.8555-5.3311,3.1152,0,5.9082,2.0869,6.791,5.0762l.6318,2.1377s2.4209-.1211,2.4248-.1211c3.2051,0,5.7422,2.54,5.7422,5.6631,0,3.126-2.543,5.6689-5.6689,5.6689Z"/><path d="m37.8509,14.7568c-.1224,0-.2416.0125-.3627.0183-1.071-3.6243-4.4199-6.2712-8.3914-6.2712-3.0459,0-5.7214,1.559-7.2866,3.9202.8593.4058,1.6623.9185,2.3939,1.5208,1.0754-1.5931,2.8865-2.6055,4.8929-2.6055,2.6025,0,4.9355,1.7432,5.6729,4.2393l.6318,2.1357s2.4131-.1191,2.415-.1191c2.6133,0,4.7031,2.0928,4.7031,4.665,0,2.5742-2.0947,4.6689-4.6689,4.6689h-1.1136c.0668.4641.1127.9349.1127,1.4173s-.0464.9531-.1132,1.4172h1.1142c4.1441,0,7.5035-3.3594,7.5035-7.5034s-3.3594-7.5035-7.5035-7.5035Z"/></svg>