<?xml version="1.0" encoding="UTF-8"?><svg id="Layer_1" xmlns="http://www.w3.org/2000/svg" width="16mm" height="16mm" viewBox="0 0 45.3543 45.3543"><path d="m32.5984,22.6774c0-1.2839-.2335-2.5678-.8171-3.8517-.4668-1.1672-1.1672-2.2177-2.101-3.1515-.9337-.9337-1.9843-1.6341-3.1515-2.101-1.2839-.5836-2.5679-.817-3.8518-.817-1.4277,0-2.7738.3238-4.0463.8815,1.8375-2.4083,4.4137-4.2567,7.4877-5.1958.749-.2285,1.1699-1.0205.9414-1.7695-.2295-.749-1.0283-1.1709-1.7695-.9414-7.4937,2.289-12.5293,9.0944-12.5337,16.9357,0,.0037-.0007.0071-.0007.0108,0,1.7509.4668,3.5016,1.2839,5.019.9336,1.5173,2.1008,2.6846,3.6182,3.6183,1.5175.9337,3.1516,1.2839,5.019,1.2839,1.4484,0,2.7539-.2871,3.9758-.7943-1.8329,2.3647-4.3813,4.1806-7.4172,5.1082-.749.2285-1.1699,1.0205-.9414,1.7695.1865.6104.748,1.0039,1.3545,1.0039.1377,0,.2773-.0205.415-.0625,7.4843-2.2861,12.5154-9.0776,12.5326-16.9063.0001-.0137.0021-.0261.0021-.0398Zm-9.9213,7.0867c-1.4727,0-2.5625-.2666-3.5337-.8633-1.1118-.6846-1.9541-1.5176-2.646-2.6201-.5854-1.1143-.9072-2.3906-.9072-3.6035,0-1.2383.3267-2.3857,1.0273-3.6113.5356-.9932,1.3667-1.8145,2.5723-2.5674,1.1567-.6104,2.2983-.9072,3.4873-.9072.9692,0,1.8452.1836,2.6787.5625l.1206.0518c.8145.3262,1.5342.8076,2.2002,1.4736.665.665,1.1465,1.3848,1.4727,2.1992l.0518.1211c.3789.833.5625,1.709.5625,2.6777,0,1.4727-.2666,2.5635-.8633,3.5342-.6855,1.1133-1.5195,1.9561-2.6201,2.6465-1.1724.6182-2.3193.9062-3.603.9062Z"/></svg>