<?xml version="1.0" encoding="UTF-8"?><svg id="Layer_1" xmlns="http://www.w3.org/2000/svg" width="16mm" height="16mm" viewBox="0 0 45.3543 45.3543"><defs><style>.cls-1{fill:#ff8c00;}</style></defs><path class="cls-1" d="m36.8503,22.6765h-19.8428c-.7832,0-1.417-.6338-1.417-1.417s.6338-1.417,1.417-1.417h19.8428c1.5635,0,2.835-1.2715,2.835-2.835s-1.2715-2.835-2.835-2.835c-.6992,0-1.3701.2568-1.8896.7217-.584.5215-1.4795.4717-2.002-.1113-.5215-.584-.4717-1.4795.1113-2.002,1.04-.9307,2.3828-1.4424,3.7803-1.4424,3.126,0,5.6689,2.543,5.6689,5.6689s-2.543,5.6689-5.6689,5.6689Z"/><path class="cls-1" d="m34.9499,34.7244c-.458,0-.9082-.2217-1.1816-.6318-.4326-.6523-.2559-1.5322.3955-1.9658.7949-.5283,1.2695-1.4111,1.2695-2.3633,0-1.5635-1.2715-2.835-2.835-2.835h-7.0869c-.7832,0-1.417-.6338-1.417-1.417s.6338-1.417,1.417-1.417h7.0869c3.126,0,5.6689,2.543,5.6689,5.6689,0,1.9033-.9473,3.6689-2.5332,4.7246-.2412.1602-.5146.2363-.7842.2363Z"/><path class="cls-1" d="m12.7555,22.6765H4.2516c-.7832,0-1.417-.6338-1.417-1.417s.6338-1.417,1.417-1.417h8.5039c.7832,0,1.417.6338,1.417,1.417s-.6338,1.417-1.417,1.417Z"/><path class="cls-1" d="m21.2592,26.9281l-11.3384.001c-.7832,0-1.417-.6338-1.417-1.417s.6338-1.417,1.417-1.417l11.3384-.001c.7832,0,1.417.6338,1.417,1.417s-.6338,1.417-1.417,1.417Z"/><path class="cls-1" d="m22.6757,18.4265h-11.3379c-.7832,0-1.417-.6338-1.417-1.417s.6338-1.417,1.417-1.417h11.3379c1.2002,0,2.2744-.7598,2.6748-1.8906.2598-.7393,1.0713-1.127,1.8086-.8633.7383.2607,1.125,1.0703.8633,1.8086-.7988,2.2607-2.9482,3.7793-5.3467,3.7793Z"/><path class="cls-1" d="m25.5103,28.3451l-7.0856.002c-.7832,0-1.417.6338-1.417,1.417s.6338,1.417,1.417,1.417l7.0856-.002c1.2002,0,2.2744.7598,2.6748,1.8906.2598.7393,1.0713,1.127,1.8086.8633.7383-.2607,1.125-1.0703.8633-1.8086-.7988-2.2607-2.9482-3.7793-5.3467-3.7793Z"/></svg>