<?xml version="1.0" encoding="UTF-8"?><svg id="Layer_1" xmlns="http://www.w3.org/2000/svg" width="16mm" height="16mm" viewBox="0 0 45.3543 45.3543"><defs><style>.cls-1{fill:#ff8c00;}</style></defs><path class="cls-1" d="m30.4807,21.5016c-.4001-1.0005-1.0004-1.9009-1.8008-2.7013-.8004-.8003-1.7008-1.4006-2.7013-1.8008-1.1005-.5003-2.201-.7003-3.3015-.7003-1.5007,0-2.9014.4001-4.202,1.1005-1.3006.8004-2.4011,1.8008-3.1014,3.1014-.8004,1.4006-1.2006,2.8013-1.2006,4.302s.4001,3.0014,1.1005,4.3021c.8003,1.3005,1.8008,2.301,3.1014,3.1014,1.3006.8003,2.7012,1.1005,4.302,1.1005s3.0014-.4002,4.302-1.1005c1.3006-.8004,2.3011-1.8009,3.1014-3.1014.8004-1.3007,1.1005-2.7013,1.1005-4.3021,0-1.1005-.2001-2.201-.7004-3.3015Zm-2.8249,6.1285c-.5485.8907-1.2156,1.5649-2.0961,2.1172-.9379.4946-1.8555.725-2.8824.725-1.1782,0-2.05-.2133-2.827-.6907-.8895-.5477-1.5633-1.2141-2.1168-2.0961-.4684-.8914-.7258-1.9125-.7258-2.8829,0-.9907.2613-1.9086.8218-2.8892.4285-.7946,1.0934-1.4516,2.0578-2.054.9254-.4883,1.8387-.7258,2.7899-.7258.7753,0,1.4761.1469,2.1429.45l.0964.0414c.6516.2609,1.2274.6461,1.7602,1.179.532.532.9172,1.1078,1.1781,1.7594l.0414.0969c.3032.6664.45,1.3672.45,2.1423,0,1.1782-.2133,2.0508-.6906,2.8274Z"/><rect class="cls-1" x="6.378" y="21.2598" width="2.8346" height="7.0866" rx="1.4173" ry="1.4173" transform="translate(-17.0079 32.5984) rotate(-90)"/><rect class="cls-1" x="36.1417" y="21.2598" width="2.8346" height="7.0866" rx="1.4173" ry="1.4173" transform="translate(12.756 62.3622) rotate(-90.0001)"/><rect class="cls-1" x="31.7829" y="10.7368" width="2.8346" height="7.0866" rx="1.4173" ry="1.4173" transform="translate(46.5789 47.8537) rotate(-135.0001)"/><rect class="cls-1" x="21.2598" y="6.378" width="2.8346" height="7.0866" rx="1.4173" ry="1.4173" transform="translate(45.3544 19.8425) rotate(179.9999)"/><rect class="cls-1" x="10.7368" y="10.7368" width="2.8346" height="7.0866" rx="1.4173" ry="1.4173" transform="translate(30.8459 15.7833) rotate(134.9998)"/><rect x="21.2598" y="10.6299" width="2.8346" height="36.8504" rx="1.4173" ry="1.4173" transform="translate(-6.3779 51.7324) rotate(-90.0002)"/><rect x="21.2598" y="16.2992" width="2.8346" height="34.0157" rx="1.4173" ry="1.4173" transform="translate(-10.6297 55.9846) rotate(-90.0006)"/><rect x="21.2598" y="23.3858" width="2.8346" height="28.3465" rx="1.4173" ry="1.4173" transform="translate(-14.8818 60.2364) rotate(-90.0002)"/></svg>