<?xml version="1.0" encoding="UTF-8"?><svg id="Layer_1" xmlns="http://www.w3.org/2000/svg" width="16mm" height="16mm" viewBox="0 0 45.3543 45.3543"><defs><style>.cls-1{fill:#ff8c00;}</style></defs><path class="cls-1" d="m30.4807,19.3756c-.4001-1.0005-1.0004-1.9009-1.8008-2.7013-.8004-.8003-1.7008-1.4006-2.7013-1.8008-1.1005-.5003-2.201-.7003-3.3015-.7003-1.5007,0-2.9014.4001-4.202,1.1005-1.3006.8004-2.4011,1.8008-3.1014,3.1014-.8004,1.4006-1.2006,2.8013-1.2006,4.302s.4001,3.0014,1.1005,4.3021c.8003,1.3005,1.8008,2.301,3.1014,3.1014,1.3006.8003,2.7012,1.1005,4.302,1.1005s3.0014-.4002,4.302-1.1005c1.3006-.8004,2.3011-1.8009,3.1014-3.1014.8004-1.3007,1.1005-2.7013,1.1005-4.3021,0-1.1005-.2001-2.201-.7004-3.3015Zm-2.8249,6.1285c-.5485.8907-1.2156,1.5649-2.0961,2.1172-.9379.4946-1.8555.725-2.8824.725-1.1782,0-2.05-.2133-2.827-.6907-.8895-.5477-1.5633-1.2141-2.1168-2.0961-.4684-.8914-.7258-1.9125-.7258-2.8829,0-.9907.2613-1.9086.8218-2.8892.4285-.7946,1.0934-1.4516,2.0578-2.054.9254-.4883,1.8387-.7258,2.7899-.7258.7753,0,1.4761.1469,2.1429.45l.0964.0414c.6516.2609,1.2274.6461,1.7602,1.179.532.532.9172,1.1078,1.1781,1.7594l.0414.0969c.3032.6664.45,1.3672.45,2.1423,0,1.1782-.2133,2.0508-.6906,2.8274Z"/><rect class="cls-1" x="6.378" y="19.1339" width="2.8346" height="7.0866" rx="1.4173" ry="1.4173" transform="translate(-14.8819 30.4724) rotate(-90)"/><rect class="cls-1" x="36.1417" y="19.1339" width="2.8346" height="7.0866" rx="1.4173" ry="1.4173" transform="translate(14.8819 60.2363) rotate(-90.0001)"/><rect class="cls-1" x="31.7829" y="8.6108" width="2.8346" height="7.0866" rx="1.4173" ry="1.4173" transform="translate(48.0822 44.2244) rotate(-135.0001)"/><rect class="cls-1" x="21.2599" y="4.252" width="2.8346" height="7.0866" rx="1.4173" ry="1.4173" transform="translate(45.3544 15.5905) rotate(179.9999)"/><rect class="cls-1" x="10.7368" y="8.6108" width="2.8346" height="7.0866" rx="1.4173" ry="1.4173" transform="translate(29.3426 12.154) rotate(134.9999)"/><rect x="11.3386" y="18.4252" width="2.8346" height="17.0079" rx="1.4173" ry="1.4173" transform="translate(-14.1732 39.6851) rotate(-90.0001)"/><rect x="30.4724" y="17.7165" width="2.8346" height="18.4252" rx="1.4173" ry="1.4173" transform="translate(4.9606 58.8189) rotate(-90)"/><rect x="17.7165" y="24.8032" width="2.8346" height="12.7559" rx="1.4173" ry="1.4173" transform="translate(-12.0472 50.315) rotate(-90.0001)"/><rect x="7.0866" y="28.3465" width="2.8346" height="5.6693" rx="1.4173" ry="1.4173" transform="translate(-22.6771 39.6851) rotate(-90.0001)"/><rect x="31.8898" y="24.8032" width="2.8346" height="12.7559" rx="1.4173" ry="1.4173" transform="translate(2.126 64.4882) rotate(-90.0001)"/><rect x="32.5984" y="32.5984" width="2.8346" height="5.6693" rx="1.4173" ry="1.4173" transform="translate(-1.4173 69.4488) rotate(-90)"/><rect x="22.6772" y="29.7638" width="2.8346" height="11.3386" rx="1.4173" ry="1.4173" transform="translate(-11.3385 59.5276) rotate(-90.0001)"/><rect x="11.3386" y="31.1811" width="2.8346" height="8.5039" rx="1.4173" ry="1.4173" transform="translate(-22.6772 48.189) rotate(-90)"/></svg>