<?xml version="1.0" encoding="UTF-8"?><svg id="Layer_1" xmlns="http://www.w3.org/2000/svg" width="15.5mm" height="16.0003mm" viewBox="0 0 43.937 45.3551"><defs><style>.cls-1{stroke-dasharray:0 0 0 0 1.4173 4.252 2.126 4.252;}.cls-1,.cls-2,.cls-3,.cls-4{fill:none;stroke:blue;stroke-linecap:round;stroke-miterlimit:10;stroke-width:2.8346px;}.cls-2{stroke-dasharray:0 0 0 0 1.4173 4.252 5.6693 4.252;}.cls-5{fill:#ff8c00;}.cls-3{stroke-dasharray:0 0 5.6693 4.252;}.cls-4{stroke-dasharray:0 0 4.252 4.252;}</style></defs><path class="cls-5" d="m34.7327,13.7063c-.4001-1.0005-1.0004-1.9009-1.8008-2.7012-.8004-.8004-1.7007-1.4006-2.7012-1.8008-1.1005-.5002-2.201-.7003-3.3015-.7003-1.5007,0-2.9014.4001-4.202,1.1005-.7878.4848-1.4875,1.0551-2.084,1.709.8172.486,1.5593,1.0829,2.203,1.7753.0283-.027.052-.056.0811-.0828,1.1005-1.1005,2.4011-1.6008,4.0018-1.6008s2.9014.5002,4.0018,1.6008c1.1005,1.1005,1.7008,2.4011,1.7008,4.0018,0,1.071-.2907,1.998-.7982,2.8303.6941.7729,1.2471,1.6713,1.6225,2.6603.3134-.3692.6108-.7568.8765-1.1885.8004-1.3006,1.1005-2.7012,1.1005-4.302,0-1.1005-.2001-2.201-.7003-3.3015Z"/><path d="m25.5118,17.0079c-.1387,0-.2739.0142-.411.0208-1.2137-4.1076-5.0092-7.1074-9.5102-7.1074-4.6301,0-8.5081,3.1763-9.6024,7.4656-3.4683,1.0727-5.9882,4.3043-5.9882,8.125,0,2.9956,1.5541,5.6202,3.8956,7.1329l1.2859-2.5715c-1.4138-1.0303-2.3464-2.6813-2.3464-4.5613,0-2.502,1.6035-4.6787,3.9902-5.417l1.5176-.4688.3926-1.5391c.7998-3.1387,3.6191-5.3311,6.8555-5.3311,3.1152,0,5.9082,2.0869,6.791,5.0762l.6318,2.1377s2.4209-.1211,2.4248-.1211c3.2051,0,5.7422,2.54,5.7422,5.6631,0,2.1314-1.1833,3.9899-2.9265,4.9579-.0498.192-.1166.3807-.2075.5623l-1.4539,2.9074c4.1849-.5323,7.4228-4.0983,7.4228-8.4277,0-4.6966-3.8073-8.504-8.504-8.504Z"/><rect class="cls-5" x="25.5118" width="2.8346" height="5.6693" rx="1.4173" ry="1.4173"/><rect class="cls-5" x="36.0349" y="25.405" width="2.8346" height="4.252" rx="1.4173" ry="1.4173" transform="translate(83.4023 20.5155) rotate(134.9999)"/><rect class="cls-5" x="39.685" y="14.1732" width="2.8346" height="5.6693" rx="1.4173" ry="1.4173" transform="translate(24.0943 58.1102) rotate(-89.9998)"/><rect class="cls-5" x="15.4898" y="4.152" width="2.8346" height="5.6693" rx="1.4173" ry="1.4173" transform="translate(33.8026 -.0282) rotate(135.0001)"/><rect class="cls-5" x="35.5338" y="4.1512" width="2.8346" height="5.6693" rx="1.4173" ry="1.4173" transform="translate(58.1397 38.054) rotate(-135)"/><line class="cls-1" x1="8.5039" y1="29.7642" x2="2.8346" y2="41.1027"/><line class="cls-2" x1="14.1732" y1="29.7642" x2="7.0866" y2="43.9374"/><line class="cls-3" x1="19.8425" y1="29.7642" x2="14.1732" y2="41.1027"/><line class="cls-4" x1="25.5118" y1="29.7642" x2="21.2598" y2="38.2681"/></svg>