<?xml version="1.0" encoding="UTF-8"?><svg id="Layer_1" xmlns="http://www.w3.org/2000/svg" width="16mm" height="16mm" viewBox="0 0 45.3543 45.3543"><defs><style>.cls-1{fill:#ff8c00;}</style></defs><rect class="cls-1" x="26.9291" y="5.6693" width="2.8346" height="5.6693" rx="1.4173" ry="1.4173"/><rect class="cls-1" x="37.4522" y="31.0743" width="2.8346" height="4.252" rx="1.4173" ry="1.4173" transform="translate(89.8306 29.1915) rotate(135)"/><rect class="cls-1" x="16.406" y="10.0281" width="2.8346" height="4.252" rx="1.4173" ry="1.4173" transform="translate(-3.3739 16.1629) rotate(-45)"/><rect class="cls-1" x="41.1024" y="19.8425" width="2.8346" height="5.6693" rx="1.4173" ry="1.4173" transform="translate(19.8424 65.1968) rotate(-89.9999)"/><rect class="cls-1" x="36.9511" y="9.8205" width="2.8346" height="5.6693" rx="1.4173" ry="1.4173" transform="translate(56.5505 48.7344) rotate(-135)"/><path class="cls-1" d="m36.1501,19.3756c-.4001-1.0005-1.0004-1.9009-1.8008-2.7012-.8004-.8004-1.7007-1.4006-2.7012-1.8008-1.1005-.5002-2.201-.7003-3.3015-.7003-1.5007,0-2.9014.4001-4.202,1.1005-.7878.4848-1.4875,1.0551-2.084,1.709.8172.486,1.5593,1.0829,2.203,1.7753.0283-.027.052-.056.0811-.0828,1.1005-1.1005,2.4011-1.6008,4.0018-1.6008s2.9014.5002,4.0018,1.6008c1.1005,1.1005,1.7008,2.4011,1.7008,4.0018,0,1.071-.2907,1.998-.7982,2.8303.6941.7729,1.2471,1.6713,1.6225,2.6603.3134-.3692.6108-.7568.8765-1.1885.8004-1.3006,1.1005-2.7012,1.1005-4.302,0-1.1005-.2001-2.201-.7003-3.3015Z"/><path d="m26.9291,22.6771c-.1387,0-.2739.0142-.411.0208-1.2137-4.1076-5.0092-7.1074-9.5102-7.1074-4.6301,0-8.5081,3.1763-9.6024,7.4656-3.4683,1.0727-5.9882,4.3043-5.9882,8.125,0,4.6966,3.8073,8.5039,8.5039,8.5039h17.0079c4.6967,0,8.504-3.8073,8.504-8.5039s-3.8073-8.504-8.504-8.504Zm0,14.173H9.9214c-3.126,0-5.6689-2.543-5.6689-5.6689,0-2.502,1.6035-4.6787,3.9902-5.417l1.5176-.4688.3926-1.5391c.7998-3.1387,3.6191-5.3311,6.8555-5.3311,3.1152,0,5.9082,2.0869,6.791,5.0762l.6318,2.1377s2.4209-.1211,2.4248-.1211c3.2051,0,5.7422,2.54,5.7422,5.6631,0,3.126-2.543,5.6689-5.6689,5.6689Z"/></svg>