<?xml version="1.0" encoding="UTF-8"?><svg id="Layer_1" xmlns="http://www.w3.org/2000/svg" width="16mm" height="16mm" viewBox="0 0 45.3543 45.3543"><defs><style>.cls-1{fill:blue;}</style></defs><path class="cls-1" d="m17.0068,39.685c-.2129,0-.4297-.0488-.6328-.1504-.7002-.3496-.9844-1.2012-.6338-1.9014l5.6699-11.3379c.3496-.7012,1.2031-.9824,1.9014-.6338.7002.3496.9844,1.2012.6338,1.9014l-5.6699,11.3379c-.248.4971-.749.7842-1.2686.7842Z"/><path class="cls-1" d="m12.7548,36.8511c-.2129,0-.4297-.0488-.6328-.1504-.7002-.3496-.9844-1.2012-.6338-1.9014l4.252-8.5039c.3506-.7012,1.2031-.9824,1.9014-.6338.7002.3496.9844,1.2012.6338,1.9014l-4.252,8.5039c-.248.4971-.749.7842-1.2686.7842Z"/><path d="m31.1811,14.1732c-.1387,0-.2739.0142-.411.0208-1.2137-4.1076-5.0092-7.1074-9.5102-7.1074-4.6301,0-8.5081,3.1763-9.6024,7.4656-3.4683,1.0727-5.9882,4.3043-5.9882,8.125,0,3.8988,2.627,7.1769,6.205,8.1807l1.3026-2.6049c-2.6517-.4729-4.6725-2.7902-4.6725-5.5757,0-2.502,1.6035-4.6787,3.9902-5.417l1.5176-.4688.3926-1.5391c.7998-3.1387,3.6191-5.3311,6.8555-5.3311,3.1152,0,5.9082,2.0869,6.791,5.0762l.6318,2.1377s2.4209-.1211,2.4248-.1211c3.2051,0,5.7422,2.54,5.7422,5.6631,0,3.126-2.543,5.6689-5.6689,5.6689h-.3734l-1.4176,2.8349h1.791c4.6967,0,8.504-3.8073,8.504-8.5039s-3.8073-8.504-8.504-8.504Z"/><path class="cls-1" d="m24.0937,36.8511c-.2129,0-.4297-.0488-.6328-.1504-.7002-.3496-.9844-1.2012-.6338-1.9014l4.252-8.5039c.3506-.7012,1.2021-.9824,1.9014-.6338.7002.3496.9844,1.2012.6338,1.9014l-4.252,8.5039c-.248.4971-.749.7842-1.2686.7842Z"/></svg>