<?xml version="1.0" encoding="UTF-8"?><svg id="Layer_1" xmlns="http://www.w3.org/2000/svg" width="16mm" height="16mm" viewBox="0 0 45.3543 45.3543"><defs><style>.cls-1{stroke-dasharray:0 0 0 0 1.4173 4.252 2.126 4.252;}.cls-1,.cls-2,.cls-3{fill:none;stroke:blue;stroke-linecap:round;stroke-miterlimit:10;stroke-width:2.8346px;}.cls-4{fill:#ff8c00;}.cls-2{stroke-dasharray:0 0 2.8346 4.252;}.cls-3{stroke-dasharray:0 0 4.252 4.252;}</style></defs><rect class="cls-4" x="26.9291" y="1.4172" width="2.8346" height="5.6693" rx="1.4173" ry="1.4173"/><rect class="cls-4" x="37.4522" y="26.8221" width="2.8346" height="4.252" rx="1.4173" ry="1.4173" transform="translate(86.8239 21.9326) rotate(135)"/><rect class="cls-4" x="16.406" y="5.776" width="2.8346" height="4.252" rx="1.4173" ry="1.4173" transform="translate(-.3672 14.9174) rotate(-45)"/><rect class="cls-4" x="41.1024" y="15.5904" width="2.8346" height="5.6693" rx="1.4173" ry="1.4173" transform="translate(24.0946 60.9447) rotate(-89.9999)"/><rect class="cls-4" x="36.9511" y="5.5684" width="2.8346" height="5.6693" rx="1.4173" ry="1.4173" transform="translate(59.5572 41.4755) rotate(-135)"/><path d="m26.9291,18.425c-.1387,0-.2739.0142-.411.0208-1.2137-4.1076-5.0092-7.1074-9.5102-7.1074-4.6301,0-8.5081,3.1763-9.6024,7.4656-3.4683,1.0727-5.9882,4.3043-5.9882,8.125,0,3.8988,2.627,7.1769,6.205,8.1807l1.3026-2.6049c-2.6517-.4729-4.6725-2.7902-4.6725-5.5757,0-2.502,1.6035-4.6787,3.9902-5.417l1.5176-.4688.3926-1.5391c.7998-3.1387,3.6191-5.3311,6.8555-5.3311,3.1152,0,5.9082,2.0869,6.791,5.0762l.6318,2.1377s2.4209-.1211,2.4248-.1211c3.2051,0,5.7422,2.54,5.7422,5.6631,0,3.126-2.543,5.6689-5.6689,5.6689h-.3734l-1.4176,2.8349h1.791c4.6967,0,8.504-3.8073,8.504-8.5039s-3.8073-8.504-8.504-8.504Z"/><path class="cls-4" d="m36.1501,15.1235c-.4001-1.0005-1.0004-1.9009-1.8008-2.7012-.8004-.8004-1.7007-1.4006-2.7012-1.8008-1.1005-.5002-2.201-.7003-3.3015-.7003-1.5007,0-2.9014.4001-4.202,1.1005-.7878.4848-1.4875,1.0551-2.084,1.709.8172.486,1.5593,1.0829,2.203,1.7753.0283-.027.052-.056.0811-.0828,1.1005-1.1005,2.4011-1.6008,4.0018-1.6008s2.9014.5002,4.0018,1.6008c1.1005,1.1005,1.7008,2.4011,1.7008,4.0018,0,1.071-.2907,1.998-.7982,2.8303.6941.7729,1.2471,1.6713,1.6225,2.6603.3134-.3692.6108-.7568.8765-1.1885.8004-1.3006,1.1005-2.7012,1.1005-4.302,0-1.1005-.2001-2.201-.7003-3.3015Z"/><line class="cls-1" x1="18.4252" y1="31.1811" x2="12.7559" y2="42.5197"/><line class="cls-3" x1="12.7559" y1="31.1811" x2="8.5039" y2="39.685"/><line class="cls-2" x1="24.0945" y1="31.1811" x2="19.8425" y2="39.685"/></svg>