<?xml version="1.0" encoding="UTF-8"?><svg id="Layer_1" xmlns="http://www.w3.org/2000/svg" width="16mm" height="16mm" viewBox="0 0 45.3543 45.3543"><defs><style>.cls-1{fill:blue;}.cls-2{fill:#ff8c00;}</style></defs><path class="cls-1" d="m15.5887,39.6854c-.2129,0-.4297-.0488-.6328-.1504-.7002-.3496-.9844-1.2012-.6338-1.9014l5.6699-11.3379c.3496-.7012,1.2031-.9824,1.9014-.6338.7002.3496.9844,1.2012.6338,1.9014l-5.6699,11.3379c-.248.4971-.749.7842-1.2686.7842Z"/><path class="cls-1" d="m22.676,36.8511c-.2129,0-.4297-.0488-.6328-.1504-.7002-.3496-.9844-1.2012-.6338-1.9014l4.252-8.5039c.3506-.7012,1.2021-.9824,1.9014-.6338.7002.3496.9844,1.2012.6338,1.9014l-4.252,8.5039c-.248.4971-.749.7842-1.2686.7842Z"/><path d="m26.9291,14.1733c-.1387,0-.2739.0142-.411.0208-1.2137-4.1076-5.0092-7.1074-9.5102-7.1074-4.6301,0-8.5081,3.1763-9.6024,7.4656-3.4683,1.0727-5.9882,4.3043-5.9882,8.125,0,3.7098,2.3796,6.8563,5.6925,8.0182l.8087-2.7214c-2.139-.8117-3.6661-2.8765-3.6661-5.2967,0-2.502,1.6035-4.6787,3.9902-5.417l1.5176-.4688.3926-1.5391c.7998-3.1387,3.6191-5.3311,6.8555-5.3311,3.1152,0,5.9082,2.0869,6.791,5.0762l.6318,2.1377s2.4209-.1211,2.4248-.1211c3.2051,0,5.7422,2.54,5.7422,5.6631,0,2.1315-1.1835,3.9902-2.9269,4.9583-.0498.192-.1166.3806-.2075.5623l-1.4537,2.9072c4.1852-.5321,7.4231-4.0981,7.4231-8.4277,0-4.6966-3.8073-8.504-8.504-8.504Z"/><path class="cls-2" d="m14.7321,24.884l-3.4856,6.8261-1.3229-1.954c1.1642.107,3.6631.3365,4.809.4418-.2859.4565-7.1095,11.4636-7.6438,12.3217l4.6277-11.8593,1.0414,1.6852-2.8344.2604-1.9573.1798.6342-2.1339,2.1837-7.3469c.9862-2.9081,5.2401-1.2136,3.9479,1.5791h0Z"/><path d="m37.8509,9.0876c-.1224,0-.2416.0125-.3627.0183-1.071-3.6243-4.4199-6.2712-8.3914-6.2712-3.0459,0-5.7214,1.559-7.2866,3.9202.8593.4058,1.6623.9185,2.3939,1.5208,1.0754-1.5931,2.8865-2.6055,4.8929-2.6055,2.6025,0,4.9355,1.7432,5.6729,4.2393l.6318,2.1357s2.4131-.1191,2.415-.1191c2.6133,0,4.7031,2.0928,4.7031,4.665,0,2.5742-2.0947,4.6689-4.6689,4.6689h-1.1136c.0668.4641.1127.9349.1127,1.4173s-.0464.9531-.1132,1.4172h1.1142c4.1441,0,7.5035-3.3594,7.5035-7.5034s-3.3594-7.5035-7.5035-7.5035Z"/></svg>