<?xml version="1.0" encoding="UTF-8"?><svg id="Layer_1" xmlns="http://www.w3.org/2000/svg" width="16mm" height="16mm" viewBox="0 0 45.3543 45.3543"><defs><style>.cls-1{fill:#ff8c00;}</style></defs><path class="cls-1" d="m31.7814,18.8254c-.4669-1.1672-1.1672-2.2177-2.101-3.1515-.9338-.9337-1.9843-1.6341-3.1515-2.101-1.2839-.5836-2.5678-.817-3.8517-.817-1.7509,0-3.3849.4669-4.9023,1.2839-1.5174.9338-2.8013,2.101-3.6183,3.6183-.9338,1.6341-1.4006,3.2682-1.4006,5.019s.4669,3.5016,1.2839,5.019c.9337,1.5173,2.101,2.6846,3.6183,3.6183,1.5174.9337,3.1515,1.2839,5.019,1.2839s3.5016-.4669,5.019-1.2839c1.5174-.9338,2.6846-2.101,3.6183-3.6183.9338-1.5174,1.2839-3.1515,1.2839-5.019,0-1.2839-.2335-2.5678-.8171-3.8517Zm-2.881,7.3857c-.6855,1.1133-1.5195,1.9561-2.6201,2.6465-1.1724.6182-2.3193.9062-3.603.9062-1.4727,0-2.5625-.2666-3.5337-.8633-1.1118-.6846-1.9541-1.5176-2.646-2.6201-.5854-1.1143-.9072-2.3906-.9072-3.6035,0-1.2383.3267-2.3857,1.0273-3.6113.5356-.9932,1.3667-1.8145,2.5723-2.5674,1.1567-.6104,2.2983-.9072,3.4873-.9072.9692,0,1.8452.1836,2.6787.5625l.1206.0518c.8145.3262,1.5342.8076,2.2002,1.4736.665.665,1.1465,1.3848,1.4727,2.1992l.0518.1211c.3789.833.5625,1.709.5625,2.6777,0,1.4727-.2666,2.5635-.8633,3.5342Z"/><rect class="cls-1" x="21.2598" y="1.4173" width="2.8346" height="8.5039" rx="1.4173" ry="1.4173"/><rect class="cls-1" x="21.2598" y="35.4331" width="2.8346" height="8.5039" rx="1.4173" ry="1.4173"/><rect class="cls-1" x="9.2335" y="6.3988" width="2.8346" height="8.5039" rx="1.4173" ry="1.4173" transform="translate(-4.4117 10.6508) rotate(-45)"/><rect class="cls-1" x="33.2862" y="30.4516" width="2.8346" height="8.5039" rx="1.4173" ry="1.4173" transform="translate(-14.3747 34.7036) rotate(-45.0001)"/><rect class="cls-1" x="4.252" y="18.4252" width="2.8346" height="8.5039" rx="1.4173" ry="1.4173" transform="translate(-17.0079 28.3465) rotate(-90)"/><rect class="cls-1" x="38.2677" y="18.4252" width="2.8346" height="8.5039" rx="1.4173" ry="1.4173" transform="translate(17.0079 62.3622) rotate(-90.0001)"/><rect class="cls-1" x="9.2335" y="30.4516" width="2.8346" height="8.5039" rx="1.4173" ry="1.4173" transform="translate(-6.3571 66.7739) rotate(-135)"/><rect class="cls-1" x="33.2862" y="6.3988" width="2.8346" height="8.5039" rx="1.4173" ry="1.4173" transform="translate(51.7115 42.7211) rotate(-135.0001)"/></svg>