<?xml version="1.0" encoding="UTF-8"?><svg id="Layer_1" xmlns="http://www.w3.org/2000/svg" width="16mm" height="16mm" viewBox="0 0 45.3543 45.3543"><defs><style>.cls-1{fill:#ff8c00;}</style></defs><path class="cls-1" d="m30.4808,19.3756c-.4002-1.0005-1.0005-1.9009-1.8008-2.7013-.8004-.8003-1.7008-1.4006-2.7013-1.8008-1.1005-.5002-2.2009-.7003-3.3015-.7003-1.5007,0-2.9014.4001-4.202,1.1005-1.3007.8004-2.4011,1.8008-3.1014,3.1014-.8004,1.4006-1.2006,2.8013-1.2006,4.302s.4001,3.0014,1.1005,4.3021c.8004,1.3005,1.8008,2.301,3.1014,3.1014,1.3007.8004,2.7013,1.1005,4.3021,1.1005s3.0013-.4001,4.3019-1.1005c1.3007-.8004,2.3011-1.8009,3.1014-3.1014.8004-1.3007,1.1005-2.7013,1.1005-4.3021,0-1.1005-.2001-2.201-.7003-3.3015Zm-2.8148,6.1197c-.5498.8926-1.2197,1.5713-2.1025,2.1279-.9404.4932-1.8599.7227-2.8862.7227-1.1841,0-2.0522-.209-2.8164-.6797-.894-.5498-1.5718-1.2188-2.1289-2.1025-.4673-.8945-.7241-1.916-.7241-2.8867,0-.9883.2627-1.9082.8267-2.8955.4277-.791,1.0898-1.4434,2.0562-2.0498.9277-.4873,1.8398-.7236,2.7866-.7236.7715,0,1.4678.1455,2.1289.4463l.1196.0508c.6465.2588,1.2188.6426,1.749,1.1738.5322.5312.916,1.1025,1.1729,1.748l.0527.123c.2998.6582.4453,1.3535.4453,2.127,0,1.1846-.209,2.0537-.6797,2.8184Z"/><rect class="cls-1" x="21.2598" y="4.252" width="2.8346" height="7.0866" rx="1.4173" ry="1.4173"/><rect class="cls-1" x="21.2598" y="34.0157" width="2.8346" height="7.0866" rx="1.4173" ry="1.4173"/><rect class="cls-1" x="10.7368" y="8.6108" width="2.8346" height="7.0866" rx="1.4173" ry="1.4173" transform="translate(-5.0344 12.1541) rotate(-45)"/><rect class="cls-1" x="31.7829" y="29.6569" width="2.8346" height="7.0866" rx="1.4173" ry="1.4173" transform="translate(-13.752 33.2003) rotate(-45)"/><rect class="cls-1" x="6.378" y="19.1339" width="2.8346" height="7.0866" rx="1.4173" ry="1.4173" transform="translate(-14.8819 30.4724) rotate(-90)"/><rect class="cls-1" x="36.1417" y="19.1339" width="2.8346" height="7.0866" rx="1.4173" ry="1.4173" transform="translate(14.8819 60.2363) rotate(-90.0001)"/><rect class="cls-1" x="10.7368" y="29.6569" width="2.8346" height="7.0866" rx="1.4173" ry="1.4173" transform="translate(-2.7278 65.2706) rotate(-134.9999)"/><rect class="cls-1" x="31.7829" y="8.6108" width="2.8346" height="7.0866" rx="1.4173" ry="1.4173" transform="translate(48.0822 44.2244) rotate(-135.0001)"/></svg>